<?xml version="1.0" encoding="UTF-8"?>
<svg version="1.1" xmlns="http://www.w3.org/2000/svg" width="500" height="500">
<path d="M0 0 C6.0759762 8.47213584 9.54472691 20.67387249 9 31 C7.80204688 37.82735883 5.36524478 43.74018281 1.890625 49.7109375 C0.75180328 52.6379091 1.1525353 53.9973545 2 57 C3.29725124 59.23804157 3.29725124 59.23804157 4.984375 61.36328125 C5.59023438 62.16830078 6.19609375 62.97332031 6.8203125 63.80273438 C7.45710938 64.63095703 8.09390625 65.45917969 8.75 66.3125 C11.19278883 69.52309486 13.60614187 72.75279785 16 76 C16.53931152 76.6909375 17.07862305 77.381875 17.63427734 78.09375 C21.00236269 82.7570766 21.00236269 82.7570766 20.99609375 86.05493164 C20.54750518 88.26057786 19.9065052 90.26481518 19.125 92.375 C18.88048096 93.11161865 18.63596191 93.8482373 18.3840332 94.60717773 C16.42645194 100.31579791 14.02015855 105.76934243 11 111 C10.34 111 9.68 111 9 111 C7.72241211 109.38623047 7.72241211 109.38623047 6.27734375 107.1171875 C5.74262451 106.28541992 5.20790527 105.45365234 4.65698242 104.59667969 C4.08955322 103.69852539 3.52212402 102.80037109 2.9375 101.875 C2.35911377 100.97168945 1.78072754 100.06837891 1.18481445 99.13769531 C0.01028842 97.30230523 -1.16134914 95.46506348 -2.33007812 93.62597656 C-4.25112433 90.60510331 -6.18848263 87.59502877 -8.12866211 84.58642578 C-9.7569725 82.06051307 -11.37869286 79.53041218 -13 77 C-16.73428545 80.35915175 -19.07220879 84.11457781 -21.625 88.375 C-26.39611165 96.18785329 -31.58343648 103.62425394 -37 111 C-41.39366668 107.46409905 -42.56353866 103.37995822 -44.1875 98.1875 C-44.57711914 97.01477539 -44.57711914 97.01477539 -44.97460938 95.81835938 C-47.92219913 86.70139573 -47.92219913 86.70139573 -48 82 C-46.26171875 78.96484375 -46.26171875 78.96484375 -43.6875 75.9375 C-42.76774752 74.81135029 -41.84984043 73.6836914 -40.93359375 72.5546875 C-40.45390137 71.97557617 -39.97420898 71.39646484 -39.47998047 70.79980469 C-36.99363146 67.77615492 -34.60079192 64.69228229 -32.25 61.5625 C-31.79584717 60.99587646 -31.34169434 60.42925293 -30.8737793 59.84545898 C-29.44036675 58.01773934 -29.44036675 58.01773934 -28 55 C-28.47171461 51.79828721 -28.47171461 51.79828721 -30 49 C-30.33 48.32195312 -30.66 47.64390625 -31 46.9453125 C-31.33 46.34460938 -31.66 45.74390625 -32 45.125 C-37.57438266 34.14263415 -36.80336375 23.93265008 -33.1953125 12.3515625 C-31.07815492 6.41521868 -29.30414656 1.58410076 -24 -2.0625 C-16.57635252 -4.45564952 -6.46150863 -4.57690195 0 0 Z M-26 15 C-22.60537515 22.22260607 -19.10778643 28.84167594 -14 35 C-10.57620903 31.8685777 -8.18120399 28.38830271 -5.8125 24.4375 C-5.45736328 23.86064453 -5.10222656 23.28378906 -4.73632812 22.68945312 C-3.18911868 20.14404404 -1.94551203 17.83653608 -1 15 C-4.88452489 12.39654183 -9.00513804 12.70421193 -13.5 12.75 C-14.25925781 12.74226563 -15.01851562 12.73453125 -15.80078125 12.7265625 C-19.66792278 12.74010765 -22.72791354 12.80700588 -26 15 Z " fill="#DD176B" transform="translate(264,91)"/>
<path d="M0 0 C3.9966219 2.15202718 6.31913142 3.79139627 8 8 C8.3923645 10.32296753 8.3923645 10.32296753 8.59423828 12.91357422 C8.7141362 14.37692703 8.7141362 14.37692703 8.8364563 15.86984253 C8.91362885 16.92084137 8.99080139 17.97184021 9.0703125 19.0546875 C9.15626678 20.14782257 9.24222107 21.24095764 9.33078003 22.36721802 C9.51115662 24.68525826 9.68741018 27.00362245 9.85986328 29.32226562 C10.1214707 32.82770871 10.39752455 36.33178119 10.67578125 39.8359375 C13.02732533 70.08489713 13.02732533 70.08489713 10.8125 81.625 C10.6794043 82.33591797 10.54630859 83.04683594 10.40917969 83.77929688 C7.64399994 97.50003217 1.3356113 106.81290743 -8.5 116.5 C-17.61111964 125.48624643 -22.95491558 134.36103625 -28 146 C-29.65 146 -31.3 146 -33 146 C-34.92167631 141.03967302 -32.47032398 136.97211421 -30.58203125 132.31640625 C-28.3288724 127.59311769 -25.46622796 123.88789281 -22 120 C-20.98486328 118.824375 -20.98486328 118.824375 -19.94921875 117.625 C-17.22650452 114.50746657 -14.50182694 111.47673559 -11.5 108.625 C-0.10147829 96.65655221 4.20486567 83.06517474 4.1875 66.66796875 C4.18669434 65.8500737 4.18588867 65.03217865 4.18505859 64.1894989 C4.0804187 53.18980762 3.00379338 42.25906894 2 31.3125 C1.8065306 29.13483311 1.61381797 26.95709884 1.421875 24.77929688 C0.9566059 19.51872547 0.48212538 14.25905197 0 9 C-1.32 8.67 -2.64 8.34 -4 8 C-5.15322984 10.30645969 -5.14192069 11.66725085 -5.17358398 14.234375 C-5.18707382 15.10868164 -5.20056366 15.98298828 -5.21446228 16.88378906 C-5.22490067 17.82963867 -5.23533905 18.77548828 -5.24609375 19.75 C-5.27902128 21.73958791 -5.31223311 23.72917114 -5.34570312 25.71875 C-5.39321494 28.8658537 -5.43766091 32.01293691 -5.47680664 35.16015625 C-5.51639008 38.19030419 -5.56795714 41.22006378 -5.62109375 44.25 C-5.6295079 45.19584961 -5.63792206 46.14169922 -5.64659119 47.11621094 C-5.66323318 47.99051758 -5.67987518 48.86482422 -5.69702148 49.765625 C-5.71248268 50.92239746 -5.71248268 50.92239746 -5.72825623 52.10253906 C-6 54 -6 54 -8 56 C-11.53571429 55.46428571 -11.53571429 55.46428571 -13 54 C-13.08851529 51.40640678 -13.11525945 48.83960309 -13.09765625 46.24609375 C-13.0962413 45.47064713 -13.09482635 44.6952005 -13.09336853 43.89625549 C-13.08775345 41.40996506 -13.07519846 38.9237634 -13.0625 36.4375 C-13.05748694 34.75586067 -13.0529237 33.07421994 -13.04882812 31.39257812 C-13.03777913 27.26168434 -13.02050445 23.13085724 -13 19 C-14.32 19 -15.64 19 -17 19 C-16.93417725 19.98919434 -16.86835449 20.97838867 -16.80053711 21.99755859 C-16.55823878 25.66110475 -16.32328795 29.32509125 -16.09057617 32.98925781 C-15.98874678 34.57630224 -15.88491423 36.16321943 -15.77905273 37.75 C-15.62740057 40.02834231 -15.48291362 42.3070422 -15.33984375 44.5859375 C-15.26648048 45.65320572 -15.26648048 45.65320572 -15.19163513 46.74203491 C-14.88612829 51.77225659 -14.88612829 51.77225659 -16 54 C-17.98 54 -19.96 54 -22 54 C-22.05534912 53.44014404 -22.11069824 52.88028809 -22.16772461 52.3034668 C-22.4207582 49.76444195 -22.6790698 47.225981 -22.9375 44.6875 C-23.02451172 43.80642578 -23.11152344 42.92535156 -23.20117188 42.01757812 C-23.28818359 41.17001953 -23.37519531 40.32246094 -23.46484375 39.44921875 C-23.543396 38.66893311 -23.62194824 37.88864746 -23.70288086 37.0847168 C-23.96337997 34.81117999 -23.96337997 34.81117999 -25 32 C-25.99 32.495 -25.99 32.495 -27 33 C-27.12249793 40.55403876 -26.84385944 47.95835171 -26.12109375 55.48046875 C-26.08113281 56.31191406 -26.04117187 57.14335937 -26 58 C-27 59 -27 59 -29.5625 59.0625 C-30.366875 59.041875 -31.17125 59.02125 -32 59 C-33.70503254 53.6575647 -34.62020669 48.5933197 -35 43 C-35.07734375 41.9996875 -35.1546875 40.999375 -35.234375 39.96875 C-35.63431331 30.99235685 -35.63431331 30.99235685 -32.8125 27.3125 C-30.01940518 25.01595537 -28.56488931 24.20370796 -25 24 C-24.9175 23.113125 -24.835 22.22625 -24.75 21.3125 C-23.8701113 17.42632491 -22.88719093 15.73523351 -20 13 C-16.25 11.6875 -16.25 11.6875 -13 11 C-12.9175 10.278125 -12.835 9.55625 -12.75 8.8125 C-11.84343384 5.41287691 -10.36105545 3.57569685 -8 1 C-5.13391871 -0.43304064 -3.18699217 -0.30644155 0 0 Z " fill="#1A1A1A" transform="translate(328,122)"/>
<path d="M0 0 C3.12172918 2.4430924 4.70747434 3.98741118 5.8125 7.8125 C5.874375 8.534375 5.93625 9.25625 6 10 C7.0725 10.226875 8.145 10.45375 9.25 10.6875 C13.47183651 12.16514278 14.75161459 13.19504008 17 17 C17.75 20.3125 17.75 20.3125 18 23 C18.9075 23.226875 19.815 23.45375 20.75 23.6875 C24.58083146 25.23456655 25.76079853 26.5691205 28 30 C29.41438439 38.71404617 27.69998647 48.41320704 26 57 C25 58 25 58 22.4375 58.0625 C21.633125 58.041875 20.82875 58.02125 20 58 C19.07217769 53.87634529 19.11021595 50.53171798 19.7421875 46.3671875 C20.26142038 41.5996856 20.07183829 36.78921943 20 32 C19.01 31.505 19.01 31.505 18 31 C17.14483139 33.56550584 16.76181346 35.54036036 16.5 38.1953125 C16.4175 38.99324219 16.335 39.79117188 16.25 40.61328125 C16.08256334 42.29549645 15.91590369 43.97778917 15.75 45.66015625 C15.10307414 51.89692586 15.10307414 51.89692586 14 53 C12.33382885 53.04063832 10.66611905 53.042721 9 53 C8.97215238 50.49990284 8.95123881 48.00019371 8.9375 45.5 C8.93274658 44.74130615 8.92799316 43.9826123 8.9230957 43.20092773 C8.91960763 36.4543033 9.41956048 29.80955672 10.07421875 23.09765625 C10.04972656 22.07542969 10.02523437 21.05320313 10 20 C9.01 19.34 8.02 18.68 7 18 C6.98018066 19.04978027 6.96036133 20.09956055 6.93994141 21.18115234 C6.86397802 25.06893261 6.77524702 28.95633403 6.68261719 32.84375 C6.64428896 34.52759329 6.60944288 36.21151955 6.578125 37.89550781 C6.53255713 40.31345306 6.47455077 42.73082528 6.4140625 45.1484375 C6.39673569 46.28132706 6.39673569 46.28132706 6.37905884 47.43710327 C6.22774341 52.77225659 6.22774341 52.77225659 4 55 C0.46428571 54.46428571 0.46428571 54.46428571 -1 53 C-1.11678738 51.62990104 -1.1671818 50.25403745 -1.18945312 48.87915039 C-1.20617065 48.00476822 -1.22288818 47.13038605 -1.2401123 46.22950745 C-1.25368774 45.27849655 -1.26726318 44.32748566 -1.28125 43.34765625 C-1.29965942 42.37718857 -1.31806885 41.40672089 -1.33703613 40.40684509 C-1.3959889 37.29212704 -1.44871289 34.17735317 -1.5 31.0625 C-1.56749978 26.96993163 -1.64119531 22.877545 -1.71875 18.78515625 C-1.73232544 17.83616959 -1.74590088 16.88718292 -1.7598877 15.90943909 C-1.77660522 15.03190475 -1.79332275 14.15437042 -1.81054688 13.25024414 C-1.82307495 12.4760463 -1.83560303 11.70184845 -1.84851074 10.90419006 C-1.88717691 8.91325257 -1.88717691 8.91325257 -3 7 C-4.32 7.33 -5.64 7.66 -7 8 C-7.57920394 14.68459076 -8.14759174 21.37004242 -8.70898438 28.05615234 C-8.9005914 30.32360932 -9.09454099 32.59086977 -9.29101562 34.85791016 C-13.2927207 71.54541313 -13.2927207 71.54541313 0.98828125 104.37109375 C2.93911545 106.31435189 4.9585357 108.15296087 7 110 C9.42264854 112.59265896 11.71451122 115.28629328 14 118 C15.02673828 119.19302734 15.02673828 119.19302734 16.07421875 120.41015625 C21.71209175 127.1526772 26.34093338 133.99275616 27 143 C26.67 143.66 26.34 144.32 26 145 C24.35 145 22.7 145 21 145 C20.67128906 144.10539063 20.34257812 143.21078125 20.00390625 142.2890625 C16.57755674 133.57926348 12.68892269 127.66907426 6 121 C-10.97874195 103.52775101 -19.12070673 87.47444528 -19.05523682 62.53572083 C-18.97184975 57.19809601 -18.64507663 51.89017579 -18.265625 46.56640625 C-18.14667877 44.88405128 -18.14667877 44.88405128 -18.02532959 43.16770935 C-17.85661375 40.82229552 -17.68505822 38.47708434 -17.51074219 36.13208008 C-17.24893877 32.54797168 -17.01123304 28.96272397 -16.7734375 25.37695312 C-16.60565342 23.08582814 -16.43643352 20.79480774 -16.265625 18.50390625 C-16.19877502 17.43821915 -16.13192505 16.37253204 -16.06304932 15.27455139 C-15.58895467 9.34001994 -14.91668819 5.56492547 -11 1 C-7.44985064 -1.8156357 -4.22365209 -1.11148739 0 0 Z " fill="#1B1B1B" transform="translate(179,123)"/>
<path d="M0 0 C7.35603776 3.83519917 12.54500552 12.56801479 17.51953125 18.94921875 C20.50577489 22.64114532 23.78836984 25.528695 27.5 28.5 C36.90214811 36.03704808 41.57776178 42.86523091 43.60546875 54.875 C43.73440018 55.60315918 43.8633316 56.33131836 43.99617004 57.08154297 C44.26483635 58.61028345 44.52932524 60.13976352 44.78979492 61.66992188 C45.18674191 63.99555852 45.59917345 66.31805951 46.01367188 68.640625 C46.27436121 70.13525585 46.53415699 71.63004288 46.79296875 73.125 C46.91480026 73.81062012 47.03663177 74.49624023 47.16215515 75.20263672 C47.88588907 79.51184476 48.10949124 83.63452387 48 88 C45.525 88.495 45.525 88.495 43 89 C39.65730387 80.11598915 38.22539784 70.94390056 36.625 61.63012695 C36.25788419 59.50845572 35.8794454 57.38902677 35.5 55.26953125 C35.2834375 54.01760986 35.066875 52.76568848 34.84375 51.47583008 C33.51833707 46.01578843 31.52136943 42.05962947 27.33984375 38.30078125 C26.27987183 37.33096313 26.27987183 37.33096313 25.19848633 36.34155273 C24.45236084 35.67196533 23.70623535 35.00237793 22.9375 34.3125 C14.90677294 26.93765379 7.53645634 19.32233553 0.625 10.875 C-2.20313753 7.7649539 -2.20313753 7.7649539 -6 7 C-6.99 7.495 -6.99 7.495 -8 8 C-7.4490329 13.20819844 -4.86270039 17.23008069 -2.3125 21.6875 C-1.63900513 22.88862427 -1.63900513 22.88862427 -0.9519043 24.11401367 C1.90305049 29.17882561 4.87993296 34.13769055 8.13671875 38.95703125 C9.26812487 41.63452176 8.78964806 43.25776766 8 46 C5.7109375 46.30615234 5.7109375 46.30615234 3 46 C1.2265625 43.95556641 1.2265625 43.95556641 -0.375 41.1015625 C-0.96796875 40.06386719 -1.5609375 39.02617187 -2.171875 37.95703125 C-2.77515625 36.85746094 -3.3784375 35.75789063 -4 34.625 C-4.60328125 33.56410156 -5.2065625 32.50320312 -5.828125 31.41015625 C-7.58825123 28.29167174 -9.30486017 25.15422842 -11 22 C-11.51175781 21.04818848 -12.02351562 20.09637695 -12.55078125 19.11572266 C-13.00839844 18.23706543 -13.46601563 17.3584082 -13.9375 16.453125 C-14.33839844 15.68387695 -14.73929688 14.91462891 -15.15234375 14.12207031 C-16.49126697 10.77013464 -16.07952364 8.37351139 -15 5 C-11.69488255 -0.70883923 -6.08570933 -1.02109217 0 0 Z " fill="#222222" transform="translate(193,179)"/>
<path d="M0 0 C2.90194136 1.23486866 4.40315584 2.26750943 6.375 4.6875 C7.96867885 10.58411174 6.02042683 15.37850932 3.234375 20.53125 C2.08654987 22.5287296 0.92468669 24.51819817 -0.25 26.5 C-1.11044922 27.99080078 -1.11044922 27.99080078 -1.98828125 29.51171875 C-3.63699595 32.35471881 -5.31461524 35.17862847 -7 38 C-7.4746167 38.81919922 -7.9492334 39.63839844 -8.43823242 40.48242188 C-8.86982666 41.21009766 -9.3014209 41.93777344 -9.74609375 42.6875 C-10.11661865 43.32042969 -10.48714355 43.95335937 -10.86889648 44.60546875 C-12 46 -12 46 -14.8125 46.5 C-15.534375 46.335 -16.25625 46.17 -17 46 C-17.71484375 44.4296875 -17.71484375 44.4296875 -18 42 C-16.95294772 39.5717933 -15.86738381 37.4074468 -14.5625 35.125 C-14.20212646 34.47096191 -13.84175293 33.81692383 -13.47045898 33.14306641 C-11.5974342 29.7622871 -9.66592478 26.41662017 -7.71875 23.078125 C-7.1762561 22.14395752 -7.1762561 22.14395752 -6.62280273 21.19091797 C-5.613717 19.46271634 -4.59042754 17.74283137 -3.56640625 16.0234375 C-2.12837068 13.24777782 -1.40598817 11.07636108 -1 8 C-2.83631012 7.28626717 -2.83631012 7.28626717 -5 7 C-10.56170227 10.92590748 -14.44532116 15.9012205 -18.67578125 21.1875 C-23.8337958 27.42913105 -29.40807323 32.9487276 -36.17578125 37.41796875 C-42.30545963 42.73385685 -43.14426002 49.07479031 -44.5 56.75 C-44.91895239 58.98337751 -45.33953938 61.21644899 -45.76171875 63.44921875 C-45.96716309 64.55185059 -46.17260742 65.65448242 -46.38427734 66.79052734 C-47.26901945 71.40227186 -48.27520888 75.98301002 -49.3125 80.5625 C-49.48394531 81.32336914 -49.65539062 82.08423828 -49.83203125 82.86816406 C-50.2189173 84.57932883 -50.60902662 86.28976449 -51 88 C-52.65614657 88.38218767 -54.32457024 88.71395102 -56 89 C-57 88 -57 88 -57.1472168 84.96850586 C-56.98885906 80.69967486 -56.41470704 76.69634558 -55.64453125 72.50390625 C-55.5010173 71.71153061 -55.35750336 70.91915497 -55.2096405 70.10276794 C-54.90455902 68.43562727 -54.59593133 66.76913203 -54.28393555 65.10327148 C-53.81503013 62.57613597 -53.37112341 60.0453913 -52.92773438 57.51367188 C-52.62653218 55.88513254 -52.32384584 54.25686686 -52.01953125 52.62890625 C-51.89222122 51.88282608 -51.76491119 51.13674591 -51.63374329 50.36805725 C-49.97663255 41.86041718 -45.45336233 35.83527045 -39 30.25 C-38.49210937 29.79496094 -37.98421875 29.33992188 -37.4609375 28.87109375 C-35.16654351 26.82967141 -32.83769283 24.87527976 -30.40234375 23.00390625 C-27.73751926 20.78105265 -25.71818601 18.40420233 -23.5625 15.6875 C-22.78648437 14.72199219 -22.01046875 13.75648438 -21.2109375 12.76171875 C-20.48132813 11.85035156 -19.75171875 10.93898437 -19 10 C-9.76434105 -1.29028792 -9.76434105 -1.29028792 0 0 Z " fill="#1F1F1F" transform="translate(316,179)"/>
<path d="M0 0 C1.29574871 2.22687976 2.58667308 4.45633175 3.875 6.6875 C4.23980469 7.31333984 4.60460937 7.93917969 4.98046875 8.58398438 C6.56203988 11.33016697 7.97485257 13.93574397 9.1328125 16.89453125 C9.80248482 19.17487173 9.80248482 19.17487173 12 20 C4.32557008 32.24515671 -3.3962299 44.38292793 -12 56 C-16.39366668 52.46409905 -17.56353866 48.37995822 -19.1875 43.1875 C-19.57711914 42.01477539 -19.57711914 42.01477539 -19.97460938 40.81835938 C-22.93406806 31.66468484 -22.93406806 31.66468484 -23 27 C-21.59686187 24.56344912 -20.37778797 22.82212882 -18.5625 20.75 C-17.63392257 19.6236259 -16.70686268 18.49599919 -15.78125 17.3671875 C-15.31332031 16.80741211 -14.84539062 16.24763672 -14.36328125 15.67089844 C-11.63274413 12.32423008 -9.19228269 8.76116604 -6.69140625 5.2421875 C-2.7369338 0 -2.7369338 0 0 0 Z " fill="#DD2875" transform="translate(239,146)"/>
<path d="M0 0 C2.96175123 0.61277612 4.38058783 1.25372522 7 3 C7 3.66 7 4.32 7 5 C7.66 5 8.32 5 9 5 C12.17701479 14.92817122 8.23309831 24.82540221 3.8125 33.6875 C2.88496898 35.46357521 1.95104816 37.23640584 1 39 C0.34 39 -0.32 39 -1 39 C-3.32671742 36.46658389 -5.2488582 33.60633153 -7.25 30.8125 C-7.83007812 30.04357422 -8.41015625 29.27464844 -9.0078125 28.48242188 C-13.10633909 22.77095839 -13.10633909 22.77095839 -12.640625 19.39453125 C-12.09921875 18.60433594 -11.5578125 17.81414062 -11 17 C-10.30159274 15.85186078 -9.60371945 14.70339666 -8.90625 13.5546875 C-8.10856858 12.32525772 -7.30638111 11.09874129 -6.5 9.875 C-6.09652344 9.25496094 -5.69304687 8.63492188 -5.27734375 7.99609375 C-3.53374251 5.32027006 -1.77158238 2.65737357 0 0 Z " fill="#C10058" transform="translate(263,106)"/>
<path d="M0 0 C1.65 0 3.3 0 5 0 C6.80078125 1.8984375 6.80078125 1.8984375 8.3125 4.375 C8.82425781 5.18710937 9.33601563 5.99921875 9.86328125 6.8359375 C11 9 11 9 11 11 C11.66 11 12.32 11 13 11 C13.2475 10.29875 13.495 9.5975 13.75 8.875 C15.19944956 5.541266 16.7004562 2.82515381 19 0 C20.65 0 22.3 0 24 0 C24 6.93 24 13.86 24 21 C22.35 21 20.7 21 19 21 C18.67 18.36 18.34 15.72 18 13 C16.02 15.97 16.02 15.97 14 19 C11.6875 18.8125 11.6875 18.8125 9 18 C7.1875 15.4375 7.1875 15.4375 6 13 C5.67 15.64 5.34 18.28 5 21 C3.35 21 1.7 21 0 21 C0 14.07 0 7.14 0 0 Z " fill="#E60965" transform="translate(359,340)"/>
<path d="M0 0 C3.58875 -0.0928125 3.58875 -0.0928125 7.25 -0.1875 C8.37003418 -0.22846802 8.37003418 -0.22846802 9.51269531 -0.27026367 C12.59542569 -0.30881853 14.70506641 -0.16195226 17.42578125 1.33203125 C19.7545394 3.79947475 19.93297507 5.64875336 20 9 C19.484375 9.845625 18.96875 10.69125 18.4375 11.5625 C17.963125 12.366875 17.48875 13.17125 17 14 C17.64663567 16.7004039 17.64663567 16.7004039 19 19 C19.33 19.66 19.66 20.32 20 21 C16.6875 21.25 16.6875 21.25 13 21 C11.3125 19.0625 11.3125 19.0625 10 17 C7.90584196 16.20376178 7.90584196 16.20376178 6 16 C6 17.65 6 19.3 6 21 C4.02 21 2.04 21 0 21 C0 14.07 0 7.14 0 0 Z M6 5 C6 6.98 6 8.96 6 11 C7.98 11 9.96 11 12 11 C13.10836423 9.11683841 13.10836423 9.11683841 14 7 C13.67 6.34 13.34 5.68 13 5 C10.69 5 8.38 5 6 5 Z " fill="#E60965" transform="translate(172,340)"/>
<path d="M0 0 C5.61 0 11.22 0 17 0 C17 1.65 17 3.3 17 5 C13.37 5 9.74 5 6 5 C6 5.99 6 6.98 6 8 C9.3 8 12.6 8 16 8 C16 9.65 16 11.3 16 13 C12.7 13 9.4 13 6 13 C6 14.32 6 15.64 6 17 C9.63 17 13.26 17 17 17 C17 18.32 17 19.64 17 21 C11.39 21 5.78 21 0 21 C0 14.07 0 7.14 0 0 Z " fill="#E60965" transform="translate(199,340)"/>
<path d="M0 0 C1.98 0 3.96 0 6 0 C7.32002556 2.55886504 8.63113782 5.12167068 9.9375 7.6875 C10.31068359 8.40873047 10.68386719 9.12996094 11.06835938 9.87304688 C12.93965239 13.56505742 14.48269556 16.83693096 15 21 C13.02 21 11.04 21 9 21 C8.67 19.68 8.34 18.36 8 17 C6.54054712 17.08708669 5.08234132 17.19526907 3.625 17.3125 C2.81289062 17.37050781 2.00078125 17.42851562 1.1640625 17.48828125 C-1.37921338 17.82990528 -1.37921338 17.82990528 -3 21 C-6.125 21.1875 -6.125 21.1875 -9 21 C-7.50640515 16.15713185 -5.54966433 11.68649104 -3.375 7.125 C-2.88773438 6.09246094 -2.88773438 6.09246094 -2.390625 5.0390625 C-1.59676528 3.35794781 -0.79880442 1.67877079 0 0 Z M3 7 C2.34 8.65 1.68 10.3 1 12 C2.32 12 3.64 12 5 12 C4.67 10.35 4.34 8.7 4 7 C3.67 7 3.34 7 3 7 Z " fill="#E60965" transform="translate(151,340)"/>
<path d="M0 0 C1.125 3.75 1.125 3.75 0 6 C-3.3 5.67 -6.6 5.34 -10 5 C-10 5.66 -10 6.32 -10 7 C-9.07767578 7.16435547 -9.07767578 7.16435547 -8.13671875 7.33203125 C-7.32847656 7.49058594 -6.52023437 7.64914062 -5.6875 7.8125 C-4.88699219 7.96332031 -4.08648437 8.11414063 -3.26171875 8.26953125 C-0.71347293 9.09253983 0.38468823 9.88214679 2 12 C2.4026126 15.22090079 2.6274149 17.1335699 0.6875 19.8125 C-3.02751927 22.42677282 -6.61203552 22.22696368 -11 22 C-13.9375 21 -13.9375 21 -16 20 C-15.67 18.35 -15.34 16.7 -15 15 C-11.7 15.33 -8.4 15.66 -5 16 C-4.67 15.34 -4.34 14.68 -4 14 C-4.61488281 13.90203125 -5.22976563 13.8040625 -5.86328125 13.703125 C-12.40052895 12.49368205 -12.40052895 12.49368205 -15.125 10.25 C-16.38648977 7.00616917 -16.18107699 5.2653305 -15 2 C-10.11291225 -1.78749301 -5.72394936 -1.05575066 0 0 Z " fill="#E60965" transform="translate(301,340)"/>
<path d="M0 0 C1.125 3.75 1.125 3.75 0 6 C-3.3 5.67 -6.6 5.34 -10 5 C-10 5.66 -10 6.32 -10 7 C-9.07767578 7.16435547 -9.07767578 7.16435547 -8.13671875 7.33203125 C-7.32847656 7.49058594 -6.52023438 7.64914062 -5.6875 7.8125 C-4.88699219 7.96332031 -4.08648437 8.11414063 -3.26171875 8.26953125 C-0.71347293 9.09253983 0.38468823 9.88214679 2 12 C2.4026126 15.22090079 2.6274149 17.1335699 0.6875 19.8125 C-3.02751927 22.42677282 -6.61203552 22.22696368 -11 22 C-13.9375 21 -13.9375 21 -16 20 C-15.67 18.35 -15.34 16.7 -15 15 C-11.7 15.33 -8.4 15.66 -5 16 C-4.67 15.34 -4.34 14.68 -4 14 C-4.61488281 13.90203125 -5.22976562 13.8040625 -5.86328125 13.703125 C-12.40052895 12.49368205 -12.40052895 12.49368205 -15.125 10.25 C-16.38648977 7.00616917 -16.18107699 5.2653305 -15 2 C-10.11291225 -1.78749301 -5.72394936 -1.05575066 0 0 Z " fill="#E60965" transform="translate(252,340)"/>
<path d="M0 0 C5.28 0 10.56 0 16 0 C16 1.65 16 3.3 16 5 C12.7 5 9.4 5 6 5 C6 5.99 6 6.98 6 8 C8.97 8 11.94 8 15 8 C15 9.65 15 11.3 15 13 C12.03 13 9.06 13 6 13 C6 14.32 6 15.64 6 17 C9.63 17 13.26 17 17 17 C17 18.32 17 19.64 17 21 C11.39 21 5.78 21 0 21 C0 14.07 0 7.14 0 0 Z " fill="#E60965" transform="translate(334,340)"/>
<path d="M0 0 C0.99 0.66 1.98 1.32 3 2 C2.67 3.32 2.34 4.64 2 6 C-2 6 -2 6 -4 5.375 C-6.60774518 4.88604778 -7.78020166 5.65226529 -10 7 C-10.25015873 10.41642759 -10.25015873 10.41642759 -10 14 C-7.25194019 16.31937318 -7.25194019 16.31937318 -4.5625 15.625 C-3.716875 15.41875 -2.87125 15.2125 -2 15 C-0.68 15 0.64 15 2 15 C2.33 16.32 2.66 17.64 3 19 C-1.10173817 21.98308231 -3.96266839 22.5397141 -9 22 C-12.62535141 20.352113 -15.20557709 18.58884581 -17 15 C-17.70049781 10.44676421 -17.63033372 7.09724759 -15.3125 3.0625 C-10.20922597 -1.48906873 -6.43417611 -1.24532441 0 0 Z " fill="#E60965" transform="translate(134,340)"/>
<path d="M0 0 C12.45666667 -0.37 12.45666667 -0.37 14.91015625 1.30078125 C16.67373654 4.05044945 16.11007855 6.80772205 16 10 C16.226875 10.9075 16.45375 11.815 16.6875 12.75 C17 15 17 15 15.96875 16.62890625 C11.6931253 19.60657345 4.90519094 18.13500526 0 18 C0 12.06 0 6.12 0 0 Z M5 4 C5 4.99 5 5.98 5 7 C6.65 7 8.3 7 10 7 C10 6.01 10 5.02 10 4 C8.35 4 6.7 4 5 4 Z M5 11 C5 11.99 5 12.98 5 14 C6.98 14 8.96 14 11 14 C11 13.01 11 12.02 11 11 C9.02 11 7.04 11 5 11 Z " fill="#000000" transform="translate(114,303)"/>
<path d="M0 0 C5 0 5 0 6.80078125 1.75 C7.29964844 2.4925 7.79851562 3.235 8.3125 4 C8.82425781 4.7425 9.33601563 5.485 9.86328125 6.25 C10.23839844 6.8275 10.61351562 7.405 11 8 C11.33 5.36 11.66 2.72 12 0 C13.65 0 15.3 0 17 0 C17 5.94 17 11.88 17 18 C12 18 12 18 10.19921875 16.46875 C9.70035156 15.8190625 9.20148438 15.169375 8.6875 14.5 C8.17574219 13.8503125 7.66398437 13.200625 7.13671875 12.53125 C6.57404297 11.77328125 6.57404297 11.77328125 6 11 C5.67 13.31 5.34 15.62 5 18 C3.35 18 1.7 18 0 18 C0 12.06 0 6.12 0 0 Z " fill="#000000" transform="translate(303,303)"/>
<path d="M0 0 C12.44220129 -0.36957034 12.44220129 -0.36957034 14.8984375 1.2578125 C16.92807135 4.46780079 16.29511215 7.28158685 16 11 C15.34 11.66 14.68 12.32 14 13 C14.99 14.65 15.98 16.3 17 18 C15.02 18 13.04 18 11 18 C10.34 16.68 9.68 15.36 9 14 C7.68 14 6.36 14 5 14 C5 15.32 5 16.64 5 18 C3.35 18 1.7 18 0 18 C0 12.06 0 6.12 0 0 Z M5 4 C5 5.65 5 7.3 5 9 C6.65 9 8.3 9 10 9 C10.59070014 7.05396726 10.59070014 7.05396726 11 5 C9.93354885 3.70366379 9.93354885 3.70366379 7.4375 3.9375 C6.633125 3.958125 5.82875 3.97875 5 4 Z " fill="#000000" transform="translate(371,303)"/>
<path d="M0 0 C12.44220129 -0.36957034 12.44220129 -0.36957034 14.8984375 1.2578125 C16.92807135 4.46780079 16.29511215 7.28158685 16 11 C15.34 11.66 14.68 12.32 14 13 C14.99 14.65 15.98 16.3 17 18 C15.02 18 13.04 18 11 18 C10.34 16.68 9.68 15.36 9 14 C7.68 14 6.36 14 5 14 C5 15.32 5 16.64 5 18 C3.35 18 1.7 18 0 18 C0 12.06 0 6.12 0 0 Z M5 4 C5 5.65 5 7.3 5 9 C6.65 9 8.3 9 10 9 C10.59070014 7.05396726 10.59070014 7.05396726 11 5 C9.93354885 3.70366379 9.93354885 3.70366379 7.4375 3.9375 C6.633125 3.958125 5.82875 3.97875 5 4 Z " fill="#000000" transform="translate(137,303)"/>
<path d="M0 0 C7.94331329 0.94845532 7.94331329 0.94845532 10.60546875 3.59765625 C13.70978029 8.40217535 17.67688912 15.4309483 16.5703125 21.265625 C16.38210938 21.83796875 16.19390625 22.4103125 16 23 C16 22.34 16 21.68 16 21 C12.68983906 19.15209462 9.42826509 18.25458513 5.75 17.375 C2.90375 16.694375 2.90375 16.694375 0 16 C0 10.72 0 5.44 0 0 Z " fill="#E9337D" transform="translate(254,88)"/>
<path d="M0 0 C-0.33 1.32 -0.66 2.64 -1 4 C-3.64 3.67 -6.28 3.34 -9 3 C-7.6993321 5.6013358 -6.69919978 5.64188008 -4 6.5625 C-0.08991826 7.91008174 -0.08991826 7.91008174 1 9 C0.8125 12.4375 0.8125 12.4375 0 16 C-2.95925571 18.08657055 -5.10611549 18.17590705 -8.625 17.6875 C-9.40101563 17.58824219 -10.17703125 17.48898437 -10.9765625 17.38671875 C-13 17 -13 17 -15 16 C-14.67 14.68 -14.34 13.36 -14 12 C-11.03 12 -8.06 12 -5 12 C-9.455 10.02 -9.455 10.02 -14 8 C-14 5.69 -14 3.38 -14 1 C-8.38372217 -1.98006579 -5.93642189 -2.30187787 0 0 Z " fill="#000000" transform="translate(218,304)"/>
<path d="M0 0 C1.98 0 3.96 0 6 0 C7.17112946 2.62309099 8.33705964 5.24828142 9.5 7.875 C9.83386719 8.62136719 10.16773438 9.36773437 10.51171875 10.13671875 C10.82753906 10.85214844 11.14335937 11.56757813 11.46875 12.3046875 C11.90864258 13.2944458 11.90864258 13.2944458 12.35742188 14.30419922 C13 16 13 16 13 18 C11.35 18 9.7 18 8 18 C7.67 17.01 7.34 16.02 7 15 C5.0509375 15.185625 5.0509375 15.185625 3.0625 15.375 C2.33160156 15.44460938 1.60070312 15.51421875 0.84765625 15.5859375 C0.23792969 15.72257812 -0.37179687 15.85921875 -1 16 C-1.33 16.66 -1.66 17.32 -2 18 C-3.65 18 -5.3 18 -7 18 C-6.35534798 13.66695924 -4.81074878 10.13327935 -2.9375 6.1875 C-2.11572266 4.44533203 -2.11572266 4.44533203 -1.27734375 2.66796875 C-0.85582031 1.78753906 -0.43429687 0.90710938 0 0 Z M2 7 C1.67 8.32 1.34 9.64 1 11 C2.32 10.67 3.64 10.34 5 10 C4.67 9.01 4.34 8.02 4 7 C3.34 7 2.68 7 2 7 Z " fill="#000000" transform="translate(284,303)"/>
<path d="M0 0 C1.98 0 3.96 0 6 0 C8.64 5.94 11.28 11.88 14 18 C12.02 18 10.04 18 8 18 C7.67 17.34 7.34 16.68 7 16 C5.10466658 15.53476937 5.10466658 15.53476937 2.9375 15.375 C1.638125 15.25125 0.33875 15.1275 -1 15 C-1.33 15.99 -1.66 16.98 -2 18 C-3.65 18 -5.3 18 -7 18 C-5.06375702 11.79522136 -2.74390859 5.89174281 0 0 Z M2 7 C1.67 8.32 1.34 9.64 1 11 C2.32 11 3.64 11 5 11 C4.67 9.68 4.34 8.36 4 7 C3.34 7 2.68 7 2 7 Z " fill="#000000" transform="translate(186,303)"/>
<path d="M0 0 C4.62 0 9.24 0 14 0 C14 1.32 14 2.64 14 4 C11.03 4 8.06 4 5 4 C5 4.99 5 5.98 5 7 C7.64 7 10.28 7 13 7 C13 8.32 13 9.64 13 11 C10.36 11 7.72 11 5 11 C5 11.99 5 12.98 5 14 C8.3 14 11.6 14 15 14 C15 15.32 15 16.64 15 18 C10.05 18 5.1 18 0 18 C0 12.06 0 6.12 0 0 Z " fill="#000000" transform="translate(350,303)"/>
<path d="M0 0 C4.62 0 9.24 0 14 0 C14 1.32 14 2.64 14 4 C11.03 4 8.06 4 5 4 C5 4.99 5 5.98 5 7 C7.64 7 10.28 7 13 7 C13 8.32 13 9.64 13 11 C10.36 11 7.72 11 5 11 C5 11.99 5 12.98 5 14 C8.3 14 11.6 14 15 14 C15 15.32 15 16.64 15 18 C10.05 18 5.1 18 0 18 C0 12.06 0 6.12 0 0 Z " fill="#000000" transform="translate(160,303)"/>
<path d="M0 0 C2.6875 -0.4375 2.6875 -0.4375 6 0 C8.04775301 2.11124923 9.53480226 4.45859507 11 7 C12.32 4.69 13.64 2.38 15 0 C17.31 0 19.62 0 22 0 C21.43410156 0.92941406 20.86820312 1.85882813 20.28515625 2.81640625 C19.54366285 4.06474324 18.80281145 5.31346171 18.0625 6.5625 C17.68931641 7.17158203 17.31613281 7.78066406 16.93164062 8.40820312 C14.43010777 12.66756987 13.399671 16.07072433 13 21 C11.35 21 9.7 21 8 21 C7.79375 19.72125 7.5875 18.4425 7.375 17.125 C6.29431349 12.11093246 4.02949147 8.3273805 1.2421875 4.06640625 C0 2 0 2 0 0 Z " fill="#E60965" transform="translate(259,340)"/>
<path d="M0 0 C6.27 0 12.54 0 19 0 C19 1.65 19 3.3 19 5 C17.02 5 15.04 5 13 5 C13 10.28 13 15.56 13 21 C11.02 21 9.04 21 7 21 C7 15.72 7 10.44 7 5 C4.69 5 2.38 5 0 5 C0 3.35 0 1.7 0 0 Z " fill="#E60965" transform="translate(308,340)"/>
<path d="M0 0 C0 1.32 0 2.64 0 4 C-3 5 -3 5 -6.0625 4.4375 C-7.031875 4.293125 -8.00125 4.14875 -9 4 C-11.34973818 5.89755144 -11.34973818 5.89755144 -11.125 9.125 C-11.063125 10.548125 -11.063125 10.548125 -11 12 C-6.34947128 12.26932521 -6.34947128 12.26932521 -2 11 C-1.01 11.66 -0.02 12.32 1 13 C0.265625 14.9375 0.265625 14.9375 -1 17 C-3.95485984 18.13466618 -6.85868407 18.23717989 -10 18 C-15.39759036 15.20481928 -15.39759036 15.20481928 -17 12 C-17.44570136 3.97737557 -17.44570136 3.97737557 -15 1 C-9.25967801 -2.4441932 -6.26486091 -2.08828697 0 0 Z " fill="#000000" transform="translate(343,304)"/>
<path d="M0 0 C0 1.32 0 2.64 0 4 C-3 5 -3 5 -6.0625 4.4375 C-7.031875 4.293125 -8.00125 4.14875 -9 4 C-11.34973818 5.89755144 -11.34973818 5.89755144 -11.125 9.125 C-11.063125 10.548125 -11.063125 10.548125 -11 12 C-6.34947128 12.26932521 -6.34947128 12.26932521 -2 11 C-1.01 11.66 -0.02 12.32 1 13 C0.265625 14.9375 0.265625 14.9375 -1 17 C-3.95485984 18.13466618 -6.85868407 18.23717989 -10 18 C-15.39759036 15.20481928 -15.39759036 15.20481928 -17 12 C-17.44570136 3.97737557 -17.44570136 3.97737557 -15 1 C-9.25967801 -2.4441932 -6.26486091 -2.08828697 0 0 Z " fill="#000000" transform="translate(272,304)"/>
<path d="M0 0 C5.61 0 11.22 0 17 0 C17 1.32 17 2.64 17 4 C15.02 4 13.04 4 11 4 C11 8.62 11 13.24 11 18 C9.35 18 7.7 18 6 18 C6 13.38 6 8.76 6 4 C4.02 4 2.04 4 0 4 C0 2.68 0 1.36 0 0 Z " fill="#000000" transform="translate(223,303)"/>
<path d="M0 0 C1.32 0.33 2.64 0.66 4 1 C4 5.95 4 10.9 4 16 C2.68 16 1.36 16 0 16 C0 10.72 0 5.44 0 0 Z " fill="#E82475" transform="translate(254,88)"/>
<path d="M0 0 C0.66 0.33 1.32 0.66 2 1 C-1.63 4.63 -5.26 8.26 -9 12 C-9.66 11.67 -10.32 11.34 -11 11 C-9.92173635 9.72486237 -8.83714481 8.45507431 -7.75 7.1875 C-7.14671875 6.47980469 -6.5434375 5.77210938 -5.921875 5.04296875 C-4.07629602 3.08110329 -2.20054668 1.54330375 0 0 Z " fill="#4D4D4D" transform="translate(307,179)"/>
</svg>
